<svg width="17" height="17" viewBox="0 0 17 17" fill="none" xmlns="http://www.w3.org/2000/svg">
<path d="M5.66666 1.69995H2.83333C2.05093 1.69995 1.41666 2.33421 1.41666 3.11662V14.45C1.41666 15.2324 2.05093 15.8666 2.83333 15.8666H5.66666C6.44907 15.8666 7.08333 15.2324 7.08333 14.45V3.11662C7.08333 2.33421 6.44907 1.69995 5.66666 1.69995Z" stroke="#474545" stroke-linecap="round" stroke-linejoin="round"/>
<path d="M14.1667 1.69995H11.3333C10.5509 1.69995 9.91666 2.33421 9.91666 3.11662V5.94995C9.91666 6.73235 10.5509 7.36662 11.3333 7.36662H14.1667C14.9491 7.36662 15.5833 6.73235 15.5833 5.94995V3.11662C15.5833 2.33421 14.9491 1.69995 14.1667 1.69995Z" stroke="#474545" stroke-linecap="round" stroke-linejoin="round"/>
<path d="M14.1667 10.2H11.3333C10.5509 10.2 9.91666 10.8342 9.91666 11.6166V14.45C9.91666 15.2324 10.5509 15.8666 11.3333 15.8666H14.1667C14.9491 15.8666 15.5833 15.2324 15.5833 14.45V11.6166C15.5833 10.8342 14.9491 10.2 14.1667 10.2Z" stroke="#474545" stroke-linecap="round" stroke-linejoin="round"/>
</svg>
