<svg width="17" height="17" viewBox="0 0 17 17" fill="none" xmlns="http://www.w3.org/2000/svg">
<g clip-path="url(#clip0_1_592)">
<path d="M7.4375 3.18748C7.4375 2.56753 7.19123 1.97298 6.75286 1.53461C6.31449 1.09625 5.71994 0.849976 5.1 0.849976C4.48006 0.849976 3.8855 1.09625 3.44714 1.53461C3.00877 1.97298 2.7625 2.56753 2.7625 3.18748C2.7625 3.80742 3.00877 4.40197 3.44714 4.84034C3.8855 5.2787 4.48006 5.52498 5.1 5.52498C5.71994 5.52498 6.31449 5.2787 6.75286 4.84034C7.19123 4.40197 7.4375 3.80742 7.4375 3.18748ZM3.6125 3.18748C3.6125 2.99213 3.65097 2.79871 3.72573 2.61823C3.80048 2.43776 3.91005 2.27378 4.04818 2.13565C4.1863 1.99753 4.35029 1.88796 4.53076 1.8132C4.71123 1.73845 4.90466 1.69998 5.1 1.69998C5.29534 1.69998 5.48877 1.73845 5.66924 1.8132C5.84971 1.88796 6.01369 1.99753 6.15182 2.13565C6.28995 2.27378 6.39952 2.43776 6.47427 2.61823C6.54902 2.79871 6.5875 2.99213 6.5875 3.18748C6.5875 3.58199 6.43078 3.96034 6.15182 4.2393C5.87286 4.51826 5.49451 4.67498 5.1 4.67498C4.70549 4.67498 4.32714 4.51826 4.04818 4.2393C3.76922 3.96034 3.6125 3.58199 3.6125 3.18748ZM2.125 6.37498H5.68055C5.54115 6.63848 5.43745 6.92408 5.37625 7.22498H2.125C2.01228 7.22498 1.90418 7.26975 1.82448 7.34945C1.74478 7.42916 1.7 7.53726 1.7 7.64998V8.07498C1.7 9.14598 2.63415 10.2969 4.3316 10.5655C4.0579 10.7525 3.8301 11.0015 3.66775 11.2914C1.87425 10.806 0.849998 9.42393 0.849998 8.07498V7.64998C0.849998 7.31182 0.984328 6.98752 1.22344 6.74841C1.46255 6.50931 1.78685 6.37498 2.125 6.37498ZM6.69715 6.37498C7.12555 5.85648 7.7741 5.52498 8.5 5.52498C9.00904 5.52409 9.50439 5.68975 9.91047 5.9967C10.3166 6.30364 10.6111 6.73501 10.7491 7.22498C10.8721 7.6623 10.8652 8.12598 10.7291 8.55942C10.5931 8.99287 10.3338 9.37735 9.98296 9.66593C9.6321 9.95452 9.20482 10.1347 8.75327 10.1846C8.30172 10.2344 7.84541 10.1518 7.44005 9.94668C7.12794 9.78783 6.85551 9.56088 6.6429 9.2826C6.43028 9.00433 6.28291 8.68183 6.21167 8.33895C6.14044 7.99606 6.14716 7.64156 6.23133 7.30162C6.31551 6.96168 6.47499 6.645 6.698 6.37498H6.69715ZM7.15615 7.22498C7.07243 7.40156 7.02431 7.59291 7.01455 7.7881C7.00478 7.98328 7.03355 8.17848 7.09922 8.36254C7.16489 8.54661 7.26617 8.71593 7.39728 8.86086C7.52839 9.00578 7.68676 9.12346 7.86335 9.20718C8.03994 9.29089 8.23129 9.33901 8.42647 9.34878C8.62165 9.35855 8.81685 9.32977 9.00091 9.2641C9.18498 9.19843 9.35431 9.09715 9.49923 8.96604C9.64415 8.83493 9.76183 8.67656 9.84555 8.49998C10.0146 8.14323 10.0351 7.73392 9.90235 7.36211C9.76965 6.9903 9.49467 6.68643 9.13792 6.51735C8.78117 6.34828 8.37187 6.32784 8.00006 6.46055C7.62824 6.59325 7.32437 6.86823 7.1553 7.22498H7.15615ZM13.3322 11.2914C13.1703 11.0014 12.943 10.7531 12.6684 10.5663C14.365 10.2969 15.3 9.14513 15.3 8.07498V7.64998C15.3 7.53726 15.2552 7.42916 15.1755 7.34945C15.0958 7.26975 14.9877 7.22498 14.875 7.22498H11.6237C11.5637 6.92861 11.4615 6.64237 11.3203 6.37498H14.875C15.2132 6.37498 15.5375 6.50931 15.7766 6.74841C16.0157 6.98752 16.15 7.31182 16.15 7.64998V8.07498C16.15 9.42393 15.1249 10.8052 13.3322 11.2914ZM12.3139 11.3653C12.082 11.1617 11.7837 11.0496 11.475 11.05H5.525C5.35744 11.0495 5.19144 11.0822 5.03655 11.1461C4.88165 11.21 4.74092 11.3039 4.62244 11.4224C4.50395 11.5409 4.41005 11.6816 4.34614 11.8365C4.28222 11.9914 4.24955 12.1574 4.25 12.325V12.75C4.25 14.4253 5.831 16.15 8.5 16.15C11.169 16.15 12.75 14.4253 12.75 12.75V12.325C12.75 11.9425 12.5817 11.5991 12.3139 11.3645V11.3653ZM5.1 12.325C5.1 12.2123 5.14478 12.1042 5.22448 12.0245C5.30418 11.9448 5.41228 11.9 5.525 11.9H11.475C11.5877 11.9 11.6958 11.9448 11.7755 12.0245C11.8552 12.1042 11.9 12.2123 11.9 12.325V12.75C11.9 13.9723 10.6828 15.3 8.5 15.3C6.3172 15.3 5.1 13.9723 5.1 12.75V12.325ZM11.9 0.849976C12.5199 0.849976 13.1145 1.09625 13.5529 1.53461C13.9912 1.97298 14.2375 2.56753 14.2375 3.18748C14.2375 3.80742 13.9912 4.40197 13.5529 4.84034C13.1145 5.2787 12.5199 5.52498 11.9 5.52498C11.2801 5.52498 10.6855 5.2787 10.2471 4.84034C9.80877 4.40197 9.5625 3.80742 9.5625 3.18748C9.5625 2.56753 9.80877 1.97298 10.2471 1.53461C10.6855 1.09625 11.2801 0.849976 11.9 0.849976ZM11.9 1.69998C11.5055 1.69998 11.1271 1.85669 10.8482 2.13565C10.5692 2.41461 10.4125 2.79297 10.4125 3.18748C10.4125 3.58199 10.5692 3.96034 10.8482 4.2393C11.1271 4.51826 11.5055 4.67498 11.9 4.67498C12.2945 4.67498 12.6729 4.51826 12.9518 4.2393C13.2308 3.96034 13.3875 3.58199 13.3875 3.18748C13.3875 2.79297 13.2308 2.41461 12.9518 2.13565C12.6729 1.85669 12.2945 1.69998 11.9 1.69998Z" fill="#474545"/>
</g>
<defs>
<clipPath id="clip0_1_592">
<rect width="17" height="17" fill="white"/>
</clipPath>
</defs>
</svg>
