<svg width="70" height="71" viewBox="0 0 70 71" fill="none" xmlns="http://www.w3.org/2000/svg">
<path d="M61.1626 3.41675H52.5876C50.0501 3.41675 48.1834 4.46675 47.3376 6.33341C46.8709 7.17925 46.6667 8.17091 46.6667 9.33758V17.9126C46.6667 21.6167 48.8834 23.8334 52.5876 23.8334H61.1626C62.3292 23.8334 63.3209 23.6292 64.1667 23.1626C66.0334 22.3167 67.0834 20.4501 67.0834 17.9126V9.33758C67.0834 5.63341 64.8667 3.41675 61.1626 3.41675ZM63.9042 14.8792C63.6126 15.1709 63.1751 15.3751 62.7084 15.4042H58.5959V16.8917L58.6251 19.4584C58.5959 19.9542 58.4209 20.3626 58.0709 20.7126C57.7792 21.0042 57.3417 21.2084 56.8751 21.2084C55.9126 21.2084 55.1251 20.4209 55.1251 19.4584V15.3751L51.0417 15.4042C50.0792 15.4042 49.2917 14.5876 49.2917 13.6251C49.2917 12.6626 50.0792 11.8751 51.0417 11.8751L53.6084 11.9042H55.1251V7.82091C55.1251 6.85841 55.9126 6.04175 56.8751 6.04175C57.8376 6.04175 58.6251 6.85841 58.6251 7.82091L58.5959 9.89175V11.8751H62.7084C63.6709 11.8751 64.4584 12.6626 64.4584 13.6251C64.4292 14.1209 64.2251 14.5292 63.9042 14.8792Z" fill="#DEDEDE"/>
<path d="M26.25 30.7749C30.0838 30.7749 33.1917 27.667 33.1917 23.8333C33.1917 19.9995 30.0838 16.8916 26.25 16.8916C22.4162 16.8916 19.3083 19.9995 19.3083 23.8333C19.3083 27.667 22.4162 30.7749 26.25 30.7749Z" fill="#DEDEDE"/>
<path d="M61.1624 23.8333H59.7916V37.2791L59.4124 36.9583C57.1374 35.0041 53.4624 35.0041 51.1874 36.9583L39.0541 47.3708C36.7791 49.3249 33.1041 49.3249 30.8291 47.3708L29.8374 46.5541C27.7666 44.7458 24.4708 44.5708 22.1374 46.1458L11.2291 53.4666C10.5874 51.8333 10.2083 49.9374 10.2083 47.7208V23.2791C10.2083 15.0541 14.5541 10.7083 22.7791 10.7083H46.6666V9.33742C46.6666 8.17075 46.8708 7.17909 47.3374 6.33325H22.7791C12.1624 6.33325 5.83325 12.6624 5.83325 23.2791V47.7208C5.83325 50.8999 6.38742 53.6708 7.46659 56.0041C9.97492 61.5458 15.3416 64.6666 22.7791 64.6666H47.2208C57.8374 64.6666 64.1666 58.3374 64.1666 47.7208V23.1624C63.3208 23.6291 62.3291 23.8333 61.1624 23.8333Z" fill="#DEDEDE"/>
</svg>
