<svg width="210" height="210" viewBox="0 0 210 210" fill="none" xmlns="http://www.w3.org/2000/svg">
<rect width="210" height="210" rx="5" fill="#F0F0F0"/>
<path d="M134.162 72.9167H125.587C123.05 72.9167 121.183 73.9667 120.337 75.8333C119.871 76.6792 119.667 77.6708 119.667 78.8375V87.4125C119.667 91.1167 121.883 93.3333 125.587 93.3333H134.162C135.329 93.3333 136.321 93.1292 137.167 92.6625C139.033 91.8167 140.083 89.95 140.083 87.4125V78.8375C140.083 75.1333 137.867 72.9167 134.162 72.9167ZM136.904 84.3792C136.612 84.6708 136.175 84.875 135.708 84.9042H131.596V86.3917L131.625 88.9583C131.596 89.4542 131.421 89.8625 131.071 90.2125C130.779 90.5042 130.342 90.7083 129.875 90.7083C128.912 90.7083 128.125 89.9208 128.125 88.9583V84.875L124.042 84.9042C123.079 84.9042 122.292 84.0875 122.292 83.125C122.292 82.1625 123.079 81.375 124.042 81.375L126.608 81.4042H128.125V77.3208C128.125 76.3583 128.912 75.5417 129.875 75.5417C130.837 75.5417 131.625 76.3583 131.625 77.3208L131.596 79.3917V81.375H135.708C136.671 81.375 137.458 82.1625 137.458 83.125C137.429 83.6208 137.225 84.0292 136.904 84.3792Z" fill="#DEDEDE"/>
<path d="M99.2499 100.275C103.084 100.275 106.192 97.167 106.192 93.3333C106.192 89.4995 103.084 86.3916 99.2499 86.3916C95.4161 86.3916 92.3082 89.4995 92.3082 93.3333C92.3082 97.167 95.4161 100.275 99.2499 100.275Z" fill="#DEDEDE"/>
<path d="M134.163 93.3333H132.792V106.779L132.413 106.458C130.138 104.504 126.463 104.504 124.188 106.458L112.054 116.871C109.779 118.825 106.104 118.825 103.829 116.871L102.838 116.054C100.767 114.246 97.4709 114.071 95.1375 115.646L84.2292 122.967C83.5875 121.333 83.2084 119.438 83.2084 117.221V92.7792C83.2084 84.5542 87.5542 80.2083 95.7792 80.2083H119.667V78.8375C119.667 77.6708 119.871 76.6792 120.338 75.8333H95.7792C85.1625 75.8333 78.8334 82.1625 78.8334 92.7792V117.221C78.8334 120.4 79.3875 123.171 80.4667 125.504C82.975 131.046 88.3417 134.167 95.7792 134.167H120.221C130.838 134.167 137.167 127.838 137.167 117.221V92.6625C136.321 93.1292 135.329 93.3333 134.163 93.3333Z" fill="#DEDEDE"/>
</svg>
